<svg xmlns="http://www.w3.org/2000/svg" width="21.531" height="21.514" viewBox="0 0 21.531 21.514"><defs><style>.a{fill:#999;}</style></defs><g transform="translate(-2.469 -2.525)"><g transform="translate(2.469 2.525)"><g transform="translate(0 0)"><path class="a" d="M4.153,73.9a.3.3,0,0,0-.5.136L2.476,78.8a.294.294,0,0,0,.363.363l4.782-1.156a.29.29,0,0,0,.136-.5Z" transform="translate(-2.469 -57.661)"/><path class="a" d="M26.478,12.31a.315.315,0,0,0-.431,0L13.81,24.548a.315.315,0,0,0,0,.431l3.943,3.943a.315.315,0,0,0,.431,0L30.422,16.684a.315.315,0,0,0,0-.431Z" transform="translate(-11.174 -10.027)"/><path class="a" d="M78.458,3.426a3.105,3.105,0,0,0-4.374,0,.085.085,0,0,0,0,.136L78.322,7.8a.085.085,0,0,0,.136,0A3.105,3.105,0,0,0,78.458,3.426Z" transform="translate(-57.828 -2.525)"/></g></g></g></svg>