<svg width="55" height="50" viewBox="0 0 55 50" fill="none" xmlns="http://www.w3.org/2000/svg">
<path d="M32.7599 25.5C32.7599 33.2913 26.1938 39.6312 18.0643 39.6312C9.93479 39.6312 3.36877 33.2913 3.36877 25.5C3.36877 17.7087 9.93479 11.3688 18.0643 11.3688C26.1938 11.3688 32.7599 17.7087 32.7599 25.5Z" stroke="white" stroke-width="0.737533"/>
<path d="M52.631 25.5C52.631 33.2913 46.0649 39.6312 37.9354 39.6312C29.8059 39.6312 23.2399 33.2913 23.2399 25.5C23.2399 17.7087 29.8059 11.3688 37.9354 11.3688C46.0649 11.3688 52.631 17.7087 52.631 25.5Z" stroke="white" stroke-width="0.737533"/>
<mask id="path-3-inside-1_427_5839" fill="white">
<path fill-rule="evenodd" clip-rule="evenodd" d="M28.1171 36.1452C31.2612 33.4877 33.2458 29.5899 33.2458 25.2458C33.2458 20.9017 31.2612 17.0039 28.1171 14.3464C24.9729 17.0039 22.9883 20.9017 22.9883 25.2458C22.9883 29.5899 24.9729 33.4877 28.1171 36.1452Z"/>
</mask>
<path fill-rule="evenodd" clip-rule="evenodd" d="M28.1171 36.1452C31.2612 33.4877 33.2458 29.5899 33.2458 25.2458C33.2458 20.9017 31.2612 17.0039 28.1171 14.3464C24.9729 17.0039 22.9883 20.9017 22.9883 25.2458C22.9883 29.5899 24.9729 33.4877 28.1171 36.1452Z" fill="#E7F0F9"/>
<path d="M28.1171 36.1452L27.641 36.7085L28.1171 37.1109L28.5931 36.7085L28.1171 36.1452ZM28.1171 14.3464L28.5931 13.7831L28.1171 13.3807L27.641 13.7831L28.1171 14.3464ZM32.5083 25.2458C32.5083 29.3583 30.6307 33.055 27.641 35.582L28.5931 36.7085C31.8917 33.9205 33.9834 29.8214 33.9834 25.2458H32.5083ZM27.641 14.9096C30.6307 17.4366 32.5083 21.1333 32.5083 25.2458H33.9834C33.9834 20.6702 31.8917 16.5711 28.5931 13.7831L27.641 14.9096ZM23.7258 25.2458C23.7258 21.1333 25.6034 17.4366 28.5931 14.9096L27.641 13.7831C24.3424 16.5711 22.2507 20.6702 22.2507 25.2458H23.7258ZM28.5931 35.582C25.6034 33.055 23.7258 29.3583 23.7258 25.2458H22.2507C22.2507 29.8214 24.3424 33.9205 27.641 36.7085L28.5931 35.582Z" fill="white" mask="url(#path-3-inside-1_427_5839)"/>
</svg>
