<svg width="96" height="96" viewBox="0 0 96 96" fill="none" xmlns="http://www.w3.org/2000/svg">
<g clip-path="url(#clip0_450_5998)">
<path d="M48 8C25.92 8 8 25.92 8 48C8 70.08 25.92 88 48 88C70.08 88 88 70.08 88 48C88 25.92 70.08 8 48 8ZM52 76H44V68H52V76ZM60.28 45L56.68 48.68C53.8 51.6 52 54 52 60H44V58C44 53.6 45.8 49.6 48.68 46.68L53.64 41.64C55.12 40.2 56 38.2 56 36C56 31.6 52.4 28 48 28C43.6 28 40 31.6 40 36H32C32 27.16 39.16 20 48 20C56.84 20 64 27.16 64 36C64 39.52 62.56 42.72 60.28 45Z" fill="#003B71"/>
</g>
<defs>
<clipPath id="clip0_450_5998">
<rect width="96" height="96" fill="white"/>
</clipPath>
</defs>
</svg>
