<svg width="55" height="50" viewBox="0 0 55 50" fill="none" xmlns="http://www.w3.org/2000/svg">
<path d="M32.7923 28.5C32.7923 36.3104 26.2106 42.6636 18.0643 42.6636C9.91807 42.6636 3.33636 36.3104 3.33636 28.5C3.33636 20.6896 9.91807 14.3364 18.0643 14.3364C26.2106 14.3364 32.7923 20.6896 32.7923 28.5Z" fill="#E7F0F9" stroke="white" stroke-width="0.672729"/>
<path d="M52.6634 28.5C52.6634 36.3104 46.0817 42.6636 37.9354 42.6636C29.7892 42.6636 23.2075 36.3104 23.2075 28.5C23.2075 20.6896 29.7892 14.3364 37.9354 14.3364C46.0817 14.3364 52.6634 20.6896 52.6634 28.5Z" fill="#E7F0F9" stroke="white" stroke-width="0.672729"/>
<mask id="path-3-inside-1_427_5840" fill="white">
<path fill-rule="evenodd" clip-rule="evenodd" d="M28.0018 39.5009C31.146 36.8434 33.1306 32.9455 33.1306 28.6015C33.1306 24.2574 31.146 20.3595 28.0018 17.702C24.8577 20.3595 22.873 24.2574 22.873 28.6015C22.873 32.9455 24.8577 36.8434 28.0018 39.5009Z"/>
</mask>
<path fill-rule="evenodd" clip-rule="evenodd" d="M28.0018 39.5009C31.146 36.8434 33.1306 32.9455 33.1306 28.6015C33.1306 24.2574 31.146 20.3595 28.0018 17.702C24.8577 20.3595 22.873 24.2574 22.873 28.6015C22.873 32.9455 24.8577 36.8434 28.0018 39.5009Z" fill="#E7F0F9"/>
<path d="M28.0018 39.5009L27.5676 40.0147L28.0018 40.3818L28.4361 40.0147L28.0018 39.5009ZM28.0018 17.702L28.4361 17.1883L28.0018 16.8212L27.5676 17.1883L28.0018 17.702ZM32.4579 28.6015C32.4579 32.7343 30.5709 36.4487 27.5676 38.9871L28.4361 40.0147C31.7211 37.2382 33.8033 33.1568 33.8033 28.6015H32.4579ZM27.5676 18.2158C30.5709 20.7543 32.4579 24.4687 32.4579 28.6015H33.8033C33.8033 24.0462 31.7211 19.9648 28.4361 17.1883L27.5676 18.2158ZM23.5458 28.6015C23.5458 24.4687 25.4328 20.7543 28.4361 18.2158L27.5676 17.1883C24.2826 19.9648 22.2003 24.0462 22.2003 28.6015H23.5458ZM28.4361 38.9871C25.4328 36.4487 23.5458 32.7343 23.5458 28.6015H22.2003C22.2003 33.1568 24.2826 37.2382 27.5676 40.0147L28.4361 38.9871Z" fill="white" mask="url(#path-3-inside-1_427_5840)"/>
</svg>
