<svg width="55" height="50" viewBox="0 0 55 50" fill="none" xmlns="http://www.w3.org/2000/svg">
<path d="M23.2401 24.5C23.2401 16.7087 29.8062 10.3688 37.9357 10.3688C46.0652 10.3688 52.6312 16.7087 52.6312 24.5C52.6312 32.2913 46.0652 38.6312 37.9357 38.6312C29.8062 38.6312 23.2401 32.2913 23.2401 24.5Z" fill="#E7F0F9" stroke="white" stroke-width="0.737533"/>
<path d="M3.36904 24.5C3.36904 16.7087 9.93507 10.3688 18.0646 10.3688C26.1941 10.3688 32.7601 16.7087 32.7601 24.5C32.7601 32.2913 26.1941 38.6312 18.0646 38.6312C9.93507 38.6312 3.36904 32.2913 3.36904 24.5Z" stroke="white" stroke-width="0.737533"/>
<mask id="path-3-inside-1_427_5854" fill="white">
<path fill-rule="evenodd" clip-rule="evenodd" d="M27.9979 13.4994C31.1422 16.1569 33.127 20.0549 33.127 24.399C33.127 28.743 31.1424 32.6408 27.9985 35.2983C24.8542 32.6408 22.8694 28.7428 22.8694 24.3986C22.8694 20.0547 24.8539 16.1569 27.9979 13.4994Z"/>
</mask>
<path fill-rule="evenodd" clip-rule="evenodd" d="M27.9979 13.4994C31.1422 16.1569 33.127 20.0549 33.127 24.399C33.127 28.743 31.1424 32.6408 27.9985 35.2983C24.8542 32.6408 22.8694 28.7428 22.8694 24.3986C22.8694 20.0547 24.8539 16.1569 27.9979 13.4994Z" fill="#E7F0F9"/>
<path d="M27.9979 13.4994L28.474 12.9361L27.9979 12.5337L27.5218 12.9361L27.9979 13.4994ZM27.9985 35.2983L27.5224 35.8615L27.9985 36.2639L28.4746 35.8615L27.9985 35.2983ZM27.5218 14.0627C30.5117 16.5897 32.3894 20.2865 32.3894 24.399L33.8645 24.399C33.8645 19.8233 31.7727 15.7241 28.474 12.9361L27.5218 14.0627ZM32.3894 24.399C32.3894 28.5114 30.5119 32.208 27.5223 34.735L28.4746 35.8615C31.7729 33.0735 33.8645 28.9746 33.8645 24.399L32.3894 24.399ZM28.4745 34.735C25.4847 32.208 23.6069 28.5112 23.6069 24.3986L22.1319 24.3986C22.1319 28.9744 24.2237 33.0735 27.5224 35.8615L28.4745 34.735ZM23.6069 24.3986C23.6069 20.2862 25.4844 16.5896 28.474 14.0627L27.5218 12.9361C24.2234 15.7241 22.1319 19.8231 22.1319 24.3986L23.6069 24.3986Z" fill="white" mask="url(#path-3-inside-1_427_5854)"/>
</svg>
